<svg xmlns="http://www.w3.org/2000/svg" xmlns:xlink="http://www.w3.org/1999/xlink" viewBox="0 0 299.49 344.49"><defs><style>.cls-1,.cls-2,.cls-3{fill:#fff;}.cls-1,.cls-6{stroke:#00a5a5;}.cls-1,.cls-11,.cls-14,.cls-15,.cls-2,.cls-6{stroke-miterlimit:10;}.cls-1,.cls-11,.cls-14,.cls-2,.cls-6{stroke-width:1.5px;}.cls-11,.cls-2{stroke:#f25e38;}.cls-4{clip-path:url(#clip-path);}.cls-5{fill:#00a5a5;}.cls-11,.cls-14,.cls-15,.cls-6{fill:none;}.cls-7{fill:#066734;}.cls-8{fill:#084f1a;}.cls-9{clip-path:url(#clip-path-2);}.cls-10{fill:#f25e38;}.cls-12{fill:#d20001;}.cls-13{fill:#f2848d;}.cls-14{stroke:#f2848d;}.cls-15{stroke:#fff;}.cls-16{fill:#cf8218;}.cls-17{fill:#a1cbed;}</style><clipPath id="clip-path"><circle class="cls-1" cx="169.54" cy="36.39" r="35.63"/></clipPath><clipPath id="clip-path-2"><circle class="cls-2" cx="80.84" cy="115.36" r="45.37"/></clipPath></defs><g id="圖層_2" data-name="圖層 2"><g id="圖層_1-2" data-name="圖層 1"><circle class="cls-3" cx="169.54" cy="36.39" r="35.63"/><g class="cls-4"><rect class="cls-5" x="132.98" y="33.48" width="93.36" height="37.77" transform="translate(-0.15 104.23) rotate(-32.34)"/></g><circle class="cls-6" cx="169.54" cy="36.39" r="35.63"/></g><g id="圖層_2-2" data-name="圖層 2"><path class="cls-7" d="M216.48,275c-45.55-.54-81.94-45.51-81.94-45.51s37.46-44.07,83-43.53,81.94,45.51,81.94,45.51S262,275.58,216.48,275Z"/><path class="cls-8" d="M170.2,245.55c23,20.81,21.36,60.18,21.36,60.18s-39,5.65-62-15.15-21.37-60.19-21.37-60.19S147.16,224.75,170.2,245.55Z"/><circle class="cls-3" cx="80.84" cy="115.36" r="45.37"/><g class="cls-9"><rect class="cls-10" x="26.87" y="114.77" width="118.87" height="48.09" transform="translate(-29.23 23.19) rotate(-13.11)"/></g><circle class="cls-11" cx="80.84" cy="115.36" r="45.37"/><path class="cls-12" d="M234.13,169.93A35.68,35.68,0,0,0,201,139a35.67,35.67,0,0,0-68.82-12.72,35.66,35.66,0,0,0-33.36,61.52A35.66,35.66,0,0,0,147,238.54a35.65,35.65,0,0,0,63.14-30.15A35.67,35.67,0,0,0,234.13,169.93Z"/><circle class="cls-13" cx="163.67" cy="144.63" r="4.95"/><circle class="cls-13" cx="150.91" cy="213.7" r="4.95"/><circle class="cls-13" cx="130.38" cy="203.86" r="4.95"/><circle class="cls-13" cx="121.99" cy="184.06" r="4.95"/><circle class="cls-13" cx="125.51" cy="161.75" r="4.95"/><circle class="cls-13" cx="142.69" cy="147.22" r="4.95"/><circle class="cls-13" cx="173.02" cy="211.74" r="4.95"/><circle class="cls-13" cx="188.52" cy="196.49" r="4.95"/><circle class="cls-13" cx="193.31" cy="173.81" r="4.95"/><circle class="cls-13" cx="183.41" cy="154.54" r="4.95"/><line class="cls-13" x1="163.67" y1="144.63" x2="150.91" y2="213.7"/><line class="cls-14" x1="163.67" y1="144.63" x2="150.91" y2="213.7"/><line class="cls-13" x1="126.42" y1="162.42" x2="188.16" y2="195.9"/><line class="cls-14" x1="126.42" y1="162.42" x2="188.16" y2="195.9"/><line class="cls-13" x1="131.83" y1="203.35" x2="182.75" y2="154.97"/><line class="cls-14" x1="131.83" y1="203.35" x2="182.75" y2="154.97"/><line class="cls-13" x1="172.43" y1="210.85" x2="142.16" y2="147.47"/><line class="cls-14" x1="172.43" y1="210.85" x2="142.16" y2="147.47"/><line class="cls-13" x1="192.11" y1="174.56" x2="122.47" y2="183.76"/><line class="cls-14" x1="192.11" y1="174.56" x2="122.47" y2="183.76"/><path class="cls-13" d="M118.51,215.29a19.86,19.86,0,0,0-22.71-11,19.87,19.87,0,0,0-38.72,4.58,19.86,19.86,0,0,0-7.6,38.23,19.86,19.86,0,0,0,34,19.05,19.87,19.87,0,0,0,28.63-26.46A19.87,19.87,0,0,0,118.51,215.29Z"/><circle class="cls-3" cx="76.85" cy="213.44" r="2.76"/><circle class="cls-3" cx="81.45" cy="252.3" r="2.76"/><circle class="cls-3" cx="68.9" cy="250.45" r="2.76"/><circle class="cls-3" cx="61.17" cy="241.3" r="2.76"/><circle class="cls-3" cx="59.37" cy="228.85" r="2.76"/><circle class="cls-3" cx="66.11" cy="218.28" r="2.76"/><circle class="cls-3" cx="92.89" cy="247.62" r="2.76"/><circle class="cls-3" cx="98.63" cy="236.94" r="2.76"/><circle class="cls-3" cx="97.44" cy="224.09" r="2.76"/><circle class="cls-3" cx="88.99" cy="215.46" r="2.76"/><line class="cls-15" x1="76.85" y1="213.44" x2="81.45" y2="252.3"/><line class="cls-15" x1="59.96" y1="229.05" x2="98.34" y2="236.69"/><line class="cls-15" x1="69.59" y1="249.94" x2="88.71" y2="215.8"/><line class="cls-15" x1="92.43" y1="247.24" x2="65.87" y2="218.5"/><line class="cls-15" x1="96.92" y1="224.68" x2="61.38" y2="241.06"/><polygon class="cls-16" points="247.3 325.52 236.7 325.52 236.7 314.91 228.33 314.91 228.33 325.52 217.72 325.52 217.72 333.89 228.33 333.89 228.33 344.49 236.7 344.49 236.7 333.89 247.3 333.89 247.3 325.52"/><polygon class="cls-17" points="23.31 258.5 14.95 258.5 14.95 250.14 8.36 250.14 8.36 258.5 0 258.5 0 265.09 8.36 265.09 8.36 273.45 14.95 273.45 14.95 265.09 23.31 265.09 23.31 258.5"/></g></g></svg>