<svg xmlns="http://www.w3.org/2000/svg" xmlns:xlink="http://www.w3.org/1999/xlink" viewBox="0 0 211.75 342.69"><defs><style>.cls-1,.cls-2,.cls-4{fill:#fff;}.cls-1,.cls-4,.cls-7{stroke:#e62c20;stroke-miterlimit:10;}.cls-1,.cls-7{stroke-width:2px;}.cls-3{fill:#f49fae;}.cls-5{clip-path:url(#clip-path);}.cls-6{fill:#e62c20;}.cls-10,.cls-7{fill:none;}.cls-8{fill:#afafaf;}.cls-9{fill:#3a2e2a;}.cls-10{stroke:#afafaf;stroke-linecap:round;stroke-linejoin:round;stroke-width:3px;}</style><clipPath id="clip-path"><circle class="cls-1" cx="104.76" cy="222.08" r="39.02"/></clipPath></defs><g id="圖層_2" data-name="圖層 2"><g id="圖層_2-2" data-name="圖層 2"><path class="cls-2" d="M117.45,45.39c-10.91,30.73-4,32.59,4.38,35.55s14.91,5.91,25.83-24.82c6.47-18.24,6.9-36.33,6.18-48-.51-8.41-5.2-10.07-10.9-3.87C135,12.85,123.93,27.15,117.45,45.39Z"/><path class="cls-3" d="M122.57,54.83c-5.48,15.42-2,16.36,2.2,17.84s7.48,3,13-12.46a61.92,61.92,0,0,0,3.11-24.1c-.26-4.22-2.61-5.06-5.48-2A62.07,62.07,0,0,0,122.57,54.83Z"/><path class="cls-4" d="M100.38,45.39c10.91,30.73,4,32.59-4.38,35.55S81.09,86.85,70.18,56.12C63.7,37.88,63.27,19.79,64,8.11,64.51-.3,69.19-2,74.9,4.24,82.83,12.85,93.9,27.15,100.38,45.39Z"/><path class="cls-3" d="M94.87,54.73c5.26,14.79,1.91,15.68-2.1,17.11s-7.18,2.84-12.43-12a59.52,59.52,0,0,1-3-23.1c.25-4,2.51-4.85,5.25-1.86A59.15,59.15,0,0,1,94.87,54.73Z"/><path class="cls-2" d="M117.39,318.82l23.48,21.27a10,10,0,0,0,11.34,1.47l3.68-2a7.81,7.81,0,0,0,4.09-8.37l-6.62-34.79"/><path class="cls-2" d="M105.09,306l-14,27.51a8.81,8.81,0,0,1-9.86,4.61l-4.09-.94a8.84,8.84,0,0,1-6.72-7.1l-6.28-36.11"/><path class="cls-2" d="M105.87,323C36.2,323,5,268.16.74,232.34s11.47-52.83,11.47-52.83c-12.36-9.13-10-22-6.63-31s13.19-14.69,13.19-14.69-2.09-26,23.17-38.15c0,0,27.4-28.56,63.93-26.95,36.54-1.61,63.94,27,63.94,27C195.06,107.87,193,133.84,193,133.84s9.79,5.73,13.2,14.69,5.73,21.85-6.63,31c0,0,15.76,17,11.46,52.83S175.54,323,105.87,323Z"/><circle class="cls-2" cx="104.76" cy="222.08" r="39.02"/><g class="cls-5"><rect class="cls-6" x="73.12" y="208.45" width="102.23" height="41.36" transform="matrix(-0.34, 0.94, -0.94, -0.34, 381.99, 190.37)"/></g><circle class="cls-7" cx="104.76" cy="222.08" r="39.02"/><path class="cls-8" d="M183.66,160.35a22.66,22.66,0,0,1,7.09,12.51,21.85,21.85,0,0,1,.18,7.57l-.36,1.88a14.85,14.85,0,0,1-.53,1.84c-.2.6-.36,1.23-.62,1.81l-.8,1.73a32.23,32.23,0,0,1-4.08,6.35,27.28,27.28,0,0,1-5.78,5.08,23.57,23.57,0,0,1-7.15,3,21.54,21.54,0,0,1-3.84.55c-.65,0-1.29,0-2,0-.32,0-.65,0-1-.07s-.63-.07-1.07-.15l1.57-.41a16.62,16.62,0,0,1-2.4,1.39c-.4.2-.81.39-1.23.56s-.82.34-1.25.48a17.84,17.84,0,0,1-5.33.95,11.42,11.42,0,0,1-5.23-1.32,10.69,10.69,0,0,1-3.72-3.53l1,.71a6.16,6.16,0,0,0,1.05.62l1.06.53,1.13.33a9.94,9.94,0,0,0,4.47.13,14.78,14.78,0,0,0,4.22-1.54,18.13,18.13,0,0,0,2-1.15,19,19,0,0,0,1.75-1.31,1.62,1.62,0,0,1,1.13-.42h.44c.36,0,.94,0,1.43,0s1-.08,1.55-.14a24.12,24.12,0,0,0,3.06-.68,21.77,21.77,0,0,0,5.62-2.66,26.5,26.5,0,0,0,4.71-4.16l1-1.26a12.07,12.07,0,0,0,1-1.29,30.51,30.51,0,0,0,1.72-2.74,22.87,22.87,0,0,0,3.09-12.27A28.21,28.21,0,0,0,183.66,160.35Z"/><path class="cls-8" d="M28.09,160.35a28.22,28.22,0,0,0-3.89,12.9,22.88,22.88,0,0,0,3.1,12.27A30.39,30.39,0,0,0,29,188.26a12.07,12.07,0,0,0,1,1.29l1,1.26A26.16,26.16,0,0,0,35.69,195a21.46,21.46,0,0,0,5.62,2.66,15.19,15.19,0,0,0,1.51.39c.51.14,1,.2,1.54.29s1,.13,1.55.14,1.07,0,1.44,0h.44a1.63,1.63,0,0,1,1.13.42,17.51,17.51,0,0,0,1.74,1.31,18.27,18.27,0,0,0,2,1.15,14.67,14.67,0,0,0,4.22,1.54,10,10,0,0,0,4.47-.13l1.12-.33,1.07-.53a5.72,5.72,0,0,0,1-.62l1-.71a10.69,10.69,0,0,1-3.72,3.53,11.45,11.45,0,0,1-5.23,1.32,17.78,17.78,0,0,1-5.33-.95q-.64-.21-1.26-.48c-.42-.17-.82-.36-1.22-.56a16.1,16.1,0,0,1-2.4-1.39l1.57.41a10.63,10.63,0,0,1-1.08.15c-.33,0-.66.06-1,.07-.65,0-1.3,0-2,0a21.67,21.67,0,0,1-3.84-.55,23.51,23.51,0,0,1-7.14-3A27.28,27.28,0,0,1,27.21,194a31.78,31.78,0,0,1-4.08-6.35l-.8-1.73c-.27-.58-.42-1.21-.63-1.81s-.42-1.2-.53-1.84l-.35-1.88a21.61,21.61,0,0,1,.18-7.57A22.6,22.6,0,0,1,28.09,160.35Z"/><circle class="cls-2" cx="143.46" cy="141.61" r="17.67"/><circle class="cls-9" cx="143.46" cy="141.61" r="13.61"/><circle class="cls-2" cx="143.46" cy="141.61" r="5.29"/><circle class="cls-2" cx="68.29" cy="141.61" r="17.67"/><circle class="cls-9" cx="68.29" cy="141.61" r="13.61"/><circle class="cls-2" cx="68.29" cy="141.61" r="5.29"/><path class="cls-8" d="M98.17,161a40.69,40.69,0,0,1,4.62,1.73,9.76,9.76,0,0,0,3.08,1,10.25,10.25,0,0,0,3.08-1,38.86,38.86,0,0,1,4.62-1.73,9.32,9.32,0,0,1-2.22,4.85,8.71,8.71,0,0,1-2.16,1.84,6.52,6.52,0,0,1-3.32,1,6.61,6.61,0,0,1-3.31-1,8.51,8.51,0,0,1-2.15-1.85A9.43,9.43,0,0,1,98.17,161Z"/><path class="cls-8" d="M105.87,166.23a4.33,4.33,0,0,1,1.18,1.61,4.25,4.25,0,0,1,.32,1.62,4.06,4.06,0,0,1-.32,1.61,4.22,4.22,0,0,1-1.18,1.61,4.44,4.44,0,0,1-1.18-1.61,4.24,4.24,0,0,1-.32-1.61,4.46,4.46,0,0,1,.33-1.62A4.29,4.29,0,0,1,105.87,166.23Z"/><path class="cls-8" d="M90.11,172.93a10.64,10.64,0,0,0,3.73,2.24,4.89,4.89,0,0,0,3.38-.34,13.88,13.88,0,0,0,3.16-2.1l.79-.7a6.68,6.68,0,0,1,1.37-1,7,7,0,0,1,1.58-.61,7.6,7.6,0,0,1,.8-.17l.4-.06.22,0h.67l.21,0,.41.06a6.91,6.91,0,0,1,.79.16,7.42,7.42,0,0,1,1.59.61,7.07,7.07,0,0,1,1.37,1l.79.69a13.66,13.66,0,0,0,3.16,2.1,4.93,4.93,0,0,0,3.37.35,10.55,10.55,0,0,0,3.73-2.24,7.65,7.65,0,0,1-2.53,4.39,5.67,5.67,0,0,1-1.22.76,5.11,5.11,0,0,1-1.41.48,5.3,5.3,0,0,1-1.48.17,7.85,7.85,0,0,1-1.46-.1,13,13,0,0,1-5-2.11c-.36-.24-.7-.5-1-.74a1.58,1.58,0,0,0-.53-.32,3.26,3.26,0,0,0-.58-.2l-.34-.06-.16,0h-.05l-.17,0-.34.06a4.21,4.21,0,0,0-.57.19,1.77,1.77,0,0,0-.53.33c-.32.24-.67.5-1,.74a13,13,0,0,1-5,2.1,7.08,7.08,0,0,1-1.46.1l-.74,0a6,6,0,0,1-.74-.13,5.87,5.87,0,0,1-1.41-.48,5.47,5.47,0,0,1-1.22-.77A7.66,7.66,0,0,1,90.11,172.93Z"/><path class="cls-2" d="M180,216.73l-26.74-15.41a8.84,8.84,0,0,0-10.78,1.54l-2.91,3a8.86,8.86,0,0,0-1.75,9.62l14.48,33.67"/><path class="cls-8" d="M180,216.73c-7.29-3-14.32-6.45-21.3-10-1.73-.9-3.47-1.8-5.19-2.72l-1.3-.69c-.37-.17-.67-.31-1-.44a6.64,6.64,0,0,0-2.12-.35,6.55,6.55,0,0,0-4,1.31,10.4,10.4,0,0,0-.79.7l-1,1-2,2.1a6.41,6.41,0,0,0-1.72,3.77,6.74,6.74,0,0,0,.12,2.1,8.13,8.13,0,0,0,.32,1l.55,1.35c1.46,3.63,2.89,7.27,4.26,10.94,2.72,7.33,5.33,14.72,7.45,22.31-4-6.76-7.61-13.74-11.06-20.76-1.72-3.52-3.38-7.06-5-10.61l-.6-1.34a11.72,11.72,0,0,1-.62-1.75,11.2,11.2,0,0,1,2.66-10.45l2.06-2.13,1-1.07a11.74,11.74,0,0,1,1.43-1.21,11.11,11.11,0,0,1,7-2.06,11.34,11.34,0,0,1,3.6.8,10.7,10.7,0,0,1,1.62.83l1.25.77q2.49,1.55,5,3.14C167.19,207.57,173.71,211.92,180,216.73Z"/><path class="cls-2" d="M31.79,216.73l26.74-15.41a8.84,8.84,0,0,1,10.78,1.54l2.9,3A8.82,8.82,0,0,1,74,215.5L59.48,249.17"/><path class="cls-8" d="M31.79,216.73c6.25-4.81,12.76-9.16,19.34-13.4q2.46-1.59,5-3.14l1.24-.77a11.74,11.74,0,0,1,1.62-.83,11.4,11.4,0,0,1,3.6-.8,11.12,11.12,0,0,1,7,2.06A10.93,10.93,0,0,1,71,201.06l1,1.07,2.06,2.13a11.12,11.12,0,0,1,2.66,10.45,11.68,11.68,0,0,1-.61,1.75l-.61,1.34c-1.63,3.55-3.28,7.09-5,10.61-3.45,7-7,14-11.07,20.76,2.13-7.59,4.73-15,7.46-22.31,1.37-3.67,2.8-7.31,4.26-10.94l.55-1.35a8.13,8.13,0,0,0,.32-1,6.61,6.61,0,0,0-1.6-5.87l-2-2.1-1-1a10.4,10.4,0,0,0-.79-.7,6.55,6.55,0,0,0-4-1.31,6.62,6.62,0,0,0-2.11.35c-.35.13-.66.27-1,.44l-1.3.69c-1.72.92-3.46,1.82-5.2,2.72C46.11,210.28,39.08,213.73,31.79,216.73Z"/><circle class="cls-10" cx="143.46" cy="141.61" r="17.67"/><circle class="cls-10" cx="68.29" cy="141.61" r="17.67"/><path class="cls-2" d="M42.89,104.55s-12.42,1.43-12.18,17S50.77,132,50.77,132s-.48,6,7.16,10,15.29-2.86,15.29-2.86,24.24,4.06,32.65-11c8.42,15.05,32.66,11,32.66,11s7.64,6.92,15.28,2.86S161,132,161,132s19.82,5,20.05-10.5-12.17-17-12.17-17"/><path class="cls-8" d="M42.89,104.55a14,14,0,0,0-9.33,7.13,17.13,17.13,0,0,0-1.12,2.74,22.44,22.44,0,0,0-.56,2.92l-.16,1.48v1.49a14.78,14.78,0,0,0,.2,2.92,11.25,11.25,0,0,0,.8,2.68,9.18,9.18,0,0,0,1.49,2.22,9.44,9.44,0,0,0,4.69,2.56,25.28,25.28,0,0,0,11.43-.4,1.79,1.79,0,0,1,2.16,1.33,1.65,1.65,0,0,1,0,.31v.23c0,.06,0,.37.05.58a6.44,6.44,0,0,0,.15.71,8.13,8.13,0,0,0,.49,1.41A9.68,9.68,0,0,0,55,137.39a13.55,13.55,0,0,0,2.47,2c.44.3.95.54,1.42.82s.92.41,1.4.55a9.74,9.74,0,0,0,5.94-.14,14.14,14.14,0,0,0,2.93-1.31c.47-.27.93-.56,1.37-.87a12.51,12.51,0,0,0,1.21-.95,2.22,2.22,0,0,1,1.8-.57h.1a49.63,49.63,0,0,0,8.65.32,40.61,40.61,0,0,0,8.51-1.21,24.68,24.68,0,0,0,7.58-3.28,19.49,19.49,0,0,0,3-2.6,17.42,17.42,0,0,0,2.32-3.2,2.53,2.53,0,0,1,3.45-.91,2.56,2.56,0,0,1,.9.89v0a18.32,18.32,0,0,0,2.33,3.2,18.84,18.84,0,0,0,3,2.59,24.67,24.67,0,0,0,7.58,3.29,40.8,40.8,0,0,0,8.52,1.21,49.51,49.51,0,0,0,8.64-.33h.1a2.26,2.26,0,0,1,1.81.57,12.51,12.51,0,0,0,1.21.95c.44.31.9.61,1.37.88a14.69,14.69,0,0,0,2.93,1.31,9.82,9.82,0,0,0,5.94.14c.47-.15.92-.37,1.39-.56s1-.51,1.42-.82a12.76,12.76,0,0,0,2.47-2,9.47,9.47,0,0,0,1.72-2.52,8.13,8.13,0,0,0,.49-1.41,6.44,6.44,0,0,0,.15-.71c0-.21,0-.52,0-.58v-.23a1.78,1.78,0,0,1,1.88-1.69,1.65,1.65,0,0,1,.32,0,25.18,25.18,0,0,0,11.44.4,9.47,9.47,0,0,0,4.68-2.55,9.09,9.09,0,0,0,1.49-2.22,11.39,11.39,0,0,0,.8-2.68,14.78,14.78,0,0,0,.2-2.92v-1.49l-.16-1.48a20.75,20.75,0,0,0-.56-2.91,16.76,16.76,0,0,0-1.12-2.74,14,14,0,0,0-9.32-7.14,14.24,14.24,0,0,1,10.37,6.53A18.93,18.93,0,0,1,180.7,114a21.43,21.43,0,0,1,.86,3.11l.28,1.59.12,1.6a16.91,16.91,0,0,1,0,3.26,12.79,12.79,0,0,1-.74,3.3,10.83,10.83,0,0,1-1.75,3,12.21,12.21,0,0,1-5.83,3.66,22.43,22.43,0,0,1-6.57.92,31,31,0,0,1-6.53-.68l2.21-1.87a7.27,7.27,0,0,1,0,1.26,10.07,10.07,0,0,1-.17,1.1,11.46,11.46,0,0,1-.63,2.09,13.48,13.48,0,0,1-2.26,3.64,17,17,0,0,1-3.11,2.77c-.56.41-1.15.72-1.73,1.09a21.08,21.08,0,0,1-2,.89,13.71,13.71,0,0,1-8.54.09,18.74,18.74,0,0,1-3.83-1.59c-.6-.33-1.19-.68-1.75-1.06a17.5,17.5,0,0,1-1.72-1.29l1.9.56c-1.68.27-3.2.41-4.8.52s-3.17.12-4.77.08a43.84,43.84,0,0,1-9.54-1.27,29.49,29.49,0,0,1-9.12-3.89,24.08,24.08,0,0,1-3.92-3.29,23.1,23.1,0,0,1-3.06-4.16h4.36a22.68,22.68,0,0,1-3.06,4.15,23.65,23.65,0,0,1-3.92,3.3A29.78,29.78,0,0,1,92,140.75,44.55,44.55,0,0,1,82.41,142c-1.59,0-3.18,0-4.76-.09a46.11,46.11,0,0,1-4.81-.52l1.9-.55A18.71,18.71,0,0,1,73,142.15c-.57.38-1.15.73-1.76,1.06a18.42,18.42,0,0,1-3.82,1.59,13.74,13.74,0,0,1-8.55-.1,19.59,19.59,0,0,1-2-.89c-.58-.37-1.17-.68-1.73-1.09A16.92,16.92,0,0,1,52.08,140a13.28,13.28,0,0,1-2.26-3.63,12.31,12.31,0,0,1-.63-2.09,10.07,10.07,0,0,1-.17-1.1,7.29,7.29,0,0,1,0-1.26l2.21,1.87a31.1,31.1,0,0,1-6.54.67,22.5,22.5,0,0,1-6.57-.91,12.32,12.32,0,0,1-5.82-3.67,10.77,10.77,0,0,1-1.75-3,13.22,13.22,0,0,1-.74-3.3,16.91,16.91,0,0,1,0-3.26l.12-1.6.28-1.59a21.43,21.43,0,0,1,.86-3.11,18.93,18.93,0,0,1,1.47-2.87A14.3,14.3,0,0,1,42.89,104.55Z"/></g></g></svg>