<svg xmlns="http://www.w3.org/2000/svg" viewBox="0 0 302.48 116.85"><defs><style>.cls-1{fill:none;stroke:#cf8218;stroke-miterlimit:10;stroke-width:2px;}</style></defs><g id="圖層_2" data-name="圖層 2"><g id="圖層_2-2" data-name="圖層 2"><path class="cls-1" d="M9.21,66.62H150.32a8.2,8.2,0,1,0,0-16.39H40.38a8.21,8.21,0,1,1,0-16.41h41a8.2,8.2,0,0,0,8.21-8.2,8.18,8.18,0,0,0-8.21-8.21h-41A8.21,8.21,0,1,1,40.38,1H270.1a8.18,8.18,0,0,1,8.21,8.21,8.21,8.21,0,0,1-8.21,8.2H118.32a8.2,8.2,0,0,0-8.21,8.21,8.16,8.16,0,0,0,8.21,8.2H270.1a8.21,8.21,0,1,1,0,16.41H222.92a8.2,8.2,0,1,0,0,16.39h70.36a8.21,8.21,0,0,1,0,16.41H179a8.21,8.21,0,1,0,0,16.41h33.63a8.21,8.21,0,1,1,0,16.41H40.38a8.21,8.21,0,1,1,0-16.41H150.32a8.21,8.21,0,1,0,0-16.41H9.21a8.25,8.25,0,0,1-5.82-2.39A8.3,8.3,0,0,1,1,74.82,8.2,8.2,0,0,1,9.21,66.62Z"/></g></g></svg>