<svg xmlns="http://www.w3.org/2000/svg" xmlns:xlink="http://www.w3.org/1999/xlink" viewBox="0 0 238.67 232.33"><defs><style>.cls-1,.cls-2,.cls-3,.cls-5{fill:#fff;}.cls-1,.cls-8{stroke:#cf8218;}.cls-1,.cls-11,.cls-13,.cls-16,.cls-18,.cls-2,.cls-3,.cls-8{stroke-miterlimit:10;}.cls-1,.cls-16,.cls-18,.cls-3,.cls-8{stroke-width:1.5px;}.cls-11,.cls-2{stroke:#ffb30b;stroke-width:2px;}.cls-16,.cls-3{stroke:#44ab80;}.cls-4{fill:#066835;}.cls-6{clip-path:url(#clip-path);}.cls-7{fill:#cf8218;}.cls-11,.cls-13,.cls-16,.cls-18,.cls-8{fill:none;}.cls-9{clip-path:url(#clip-path-2);}.cls-10{fill:#ffb30b;}.cls-12{fill:#f2848d;}.cls-13{stroke:#fff;}.cls-14{clip-path:url(#clip-path-3);}.cls-15{fill:#44ab80;}.cls-17{fill:#d20001;}.cls-18{stroke:#f2848d;}</style><clipPath id="clip-path" transform="translate(6.48)"><circle class="cls-1" cx="26.52" cy="26.52" r="25.77"/></clipPath><clipPath id="clip-path-2" transform="translate(6.48)"><circle class="cls-2" cx="125.8" cy="78.66" r="63.13"/></clipPath><clipPath id="clip-path-3" transform="translate(6.48)"><circle class="cls-3" cx="79.75" cy="182.41" r="39.33"/></clipPath></defs><g id="圖層_2" data-name="圖層 2"><g id="圖層_2-2" data-name="圖層 2"><path class="cls-4" d="M161,154.22c31.31,1.54,58.09-25.65,58.09-25.65s-24-29.69-55.3-31.22S105.68,123,105.68,123,129.67,152.69,161,154.22Z" transform="translate(6.48)"/><circle class="cls-5" cx="33" cy="26.52" r="25.77"/><g class="cls-6"><rect class="cls-7" x="-4.37" y="26.24" width="67.51" height="27.31" transform="translate(72.93 72.77) rotate(167.94)"/></g><circle class="cls-8" cx="33" cy="26.52" r="25.77"/><circle class="cls-5" cx="132.28" cy="78.66" r="63.13"/><g class="cls-9"><rect class="cls-10" x="63.61" y="71.69" width="165.4" height="66.92" transform="translate(332.86 98.72) rotate(142.25)"/></g><circle class="cls-11" cx="132.28" cy="78.66" r="63.13"/><path class="cls-12" d="M39.5,85.38a24.62,24.62,0,0,1,30.64-6.21,24.61,24.61,0,0,1,45.06,17.4,24.61,24.61,0,0,1-2.62,48.22A24.61,24.61,0,0,1,65.9,157.2a24.61,24.61,0,0,1-26.22-40.55A24.61,24.61,0,0,1,39.5,85.38Z" transform="translate(6.48)"/><circle class="cls-5" cx="96.55" cy="95.97" r="3.42"/><circle class="cls-5" cx="79.09" cy="141.19" r="3.42"/><circle class="cls-5" cx="94.72" cy="142.83" r="3.42"/><circle class="cls-5" cx="106.81" cy="134.22" r="3.42"/><circle class="cls-5" cx="112.8" cy="119.84" r="3.42"/><circle class="cls-5" cx="107.95" cy="105.08" r="3.42"/><circle class="cls-5" cx="66.8" cy="132.05" r="3.42"/><circle class="cls-5" cx="63.2" cy="117.48" r="3.42"/><circle class="cls-5" cx="68.57" cy="102.42" r="3.42"/><circle class="cls-5" cx="81.36" cy="94.67" r="3.42"/><line class="cls-13" x1="96.55" y1="95.97" x2="79.09" y2="141.19"/><line class="cls-13" x1="112.02" y1="119.9" x2="63.62" y2="117.27"/><line class="cls-13" x1="94.05" y1="142.01" x2="81.59" y2="95.16"/><line class="cls-13" x1="67.47" y1="131.74" x2="108.17" y2="105.42"/><line class="cls-13" x1="69.01" y1="103.29" x2="106.63" y2="133.87"/><circle class="cls-5" cx="86.23" cy="182.41" r="39.33"/><g class="cls-14"><rect class="cls-15" x="24.66" y="182.13" width="103.03" height="41.69" transform="translate(122.97 416) rotate(-170.14)"/></g><circle class="cls-16" cx="86.23" cy="182.41" r="39.33"/><path class="cls-17" d="M115,133.29a17,17,0,0,1,21.6.38,17,17,0,0,1,27.8,18.46,17,17,0,0,1-9,32.14,17,17,0,0,1-33.34,1.41,17,17,0,0,1-11.65-31.27A17,17,0,0,1,115,133.29Z" transform="translate(6.48)"/><circle class="cls-12" cx="153.98" cy="147.98" r="2.36"/><circle class="cls-12" cx="135.45" cy="175.88" r="2.36"/><circle class="cls-12" cx="145.75" cy="179.32" r="2.36"/><circle class="cls-12" cx="155.19" cy="175.32" r="2.36"/><circle class="cls-12" cx="161.38" cy="166.51" r="2.36"/><circle class="cls-12" cx="160.31" cy="155.83" r="2.36"/><circle class="cls-12" cx="128.52" cy="167.88" r="2.36"/><circle class="cls-12" cx="128.27" cy="157.52" r="2.36"/><circle class="cls-12" cx="134.14" cy="148.16" r="2.36"/><circle class="cls-12" cx="143.92" cy="144.83" r="2.36"/><line class="cls-12" x1="153.98" y1="147.98" x2="135.45" y2="175.88"/><line class="cls-18" x1="153.98" y1="147.98" x2="135.45" y2="175.88"/><line class="cls-12" x1="160.85" y1="166.43" x2="128.58" y2="157.43"/><line class="cls-18" x1="160.85" y1="166.43" x2="128.58" y2="157.43"/><line class="cls-12" x1="145.42" y1="178.66" x2="144.01" y2="145.2"/><line class="cls-18" x1="145.42" y1="178.66" x2="144.01" y2="145.2"/><line class="cls-12" x1="129.02" y1="167.78" x2="160.41" y2="156.09"/><line class="cls-18" x1="129.02" y1="167.78" x2="160.41" y2="156.09"/><line class="cls-12" x1="134.31" y1="148.81" x2="155.12" y2="175.05"/><line class="cls-18" x1="134.31" y1="148.81" x2="155.12" y2="175.05"/></g></g></svg>