<svg xmlns="http://www.w3.org/2000/svg" xmlns:xlink="http://www.w3.org/1999/xlink" viewBox="0 0 291.23 279.38"><defs><style>.cls-1{fill:none;}.cls-2{fill:#3a2e2a;}.cls-3{fill:#4f4f4f;}.cls-4{fill:#c9caca;}.cls-5{fill:#f2f2f2;}.cls-6{fill:#dd5642;}.cls-7{fill:#666464;}.cls-8{fill:#e6e6e6;}.cls-9{clip-path:url(#clip-path);}.cls-10{fill:#fff;}.cls-11{clip-path:url(#clip-path-2);}.cls-12{fill:#9e6a43;}.cls-13{fill:#a47853;}.cls-14{clip-path:url(#clip-path-3);}.cls-15{fill:url(#新增圖樣色票_1);}</style><clipPath id="clip-path"><path class="cls-1" d="M287.22,221.88c-.8-1.51-9.11-8.39-15.78-17.08-.14-.2-6.15,3.61-8,4.86s5.21-8.09,5.47-8.43a42.42,42.42,0,0,1-4.26-8c-1.42-3.66-3.08-8.34-4.73-13.23-5.61,1.82-9.82,6.21-13,9.09a33.2,33.2,0,0,1-3.38,2.73c-1.9,1.3-3.27,1.77-2.65.14,4.51-10,16.89-18.36,16.89-18.36-1.15-3.52-2.26-7-3.23-10-2.4,1.88-2.12,2.29-7,5a29.44,29.44,0,0,0-8.29,7.37,18.24,18.24,0,0,1,6.11-10.71,19.2,19.2,0,0,0,6.22-11h0c-.42-1.32-.64-2.08-.64-2.08-9.91,5.76-23.18,10.12-40.88,11.23-47.22,3-66.16-26.25-72.25-46.28-.3.25-7.8,6.52-11,7.81s-5.27,2.33,0,9.36,11.46,11.51,11,14.16-.46.4-7.11-3.12-12.93-8.7-14.43-14.26-3.26,2.31-14.31.63-14.72,2.59-14.72,2.59,16.22,8.28,20.75,14.18h0c15.1,3.25,35.28,9.75,49.26,22.45,1.26,1.15,2.48,2.35,3.63,3.6a48.87,48.87,0,0,1,8,11.63,89.14,89.14,0,0,1,6,15.35c6,21.65-1.37,36.51-15.8,46.72.18,0,1.91-.2,4.46-.29,0,0,28.95-7.31,44.59-24.67,0,0-11.72-3.52-15.31-5.4-11-5.76-13.31-13.68-13.31-13.68s-1.25-9.41,3.52-17.44S192,173.56,195.6,171.3s8.56-3.13,7.86-1-10.63,15.1-12,22.73-2.89,14.42-.88,15.67,2.26,2,5.9,2,8.76.63,10.72,4.14,4.67-1.88,7.46-3.77,3.91-2.76,5.91-2.76,1.26,2-1,6.4-7.78,7.41-8.4,10.79c2.36,1.76,5.94,4.37,10.08,7.24,0,0,3.84-8.23,8.11-9.49s3.77-.63,2.32,2.38-5,6.71-6.11,10.07c10.59,7.13,23.08,14.66,28.51,14.53,10.29-.25,15.32-11.54,14.06-15.06C267,232.08,251,224.84,236.36,202a19.91,19.91,0,0,0,3-2.25c5,5.38,10,11.74,14.6,17.47S276,233.8,281.31,232.67,288.34,224,287.22,221.88ZM228.6,182.14c-3.13-.34-4.8-4.79-15.18,0s-11.63,2.16-8.36-1.87c2.69-3.33,9.87-6.36,16.56-4.35s4.9,3.84,10.06,4.35C231.68,180.3,231.73,182.47,228.6,182.14Z"/></clipPath><clipPath id="clip-path-2"><path class="cls-1" d="M159.1,248.22c.18,0,1.91-.2,4.46-.29,7-.26,20.34.11,24.59,6.16,5.86,8.37-4.18,17.73-7.53,18.07s-35.6-4-51.53.67C125.22,274,94,289.9,63.16,267.48a98.18,98.18,0,0,1-13.69-12.05c.37-8.87-10.4-21.42-11.89-26.28s1.65-11.2.48-14.22S38,208.57,40,204.31,57.56,179,65.08,172.68s10-7.78,2.26-6.27-21.58,14.8-24.84,18.35-2.76-1.79-1.76-7.06S46,157.87,51,151.35s5.52-9,15.56-11c9.87-2,32.28,6.29,33,6.56-2.22-.36-4.21-.65-5.91-.86,0,0-13.62.67-25.31,13.38-4.57,4,5,.25,11-2.26s10.31-3.26,14.32-2.26,12,3,7.77,4-17.82,11.57-22.59,15.7S76.2,179.71,85,177.2s20-10.38,24.56-13,5.52-1.17,7.66-.62,8.15-.57,10.54-1.33,7.28-2.37,9.16,0,17,5.62,20.4,8.64c1.26,1.15,2.48,2.35,3.63,3.6,0,0-32.44-1.71-46.37,1.55s-27.1,10.79-32.88,27.23S78,231,80.39,227.65s2.89-18.32,13.44-29.11,21.7-14.31,19.7-11.8-9.41,18.95-10.54,23.72,6.27-3.54,12.17-9.3,11.51-13.67,22.69-17.31,26.63,2.63,24.87,3.64-31.12,18.45-32.13,27.74c-.75,2.51,5.4-.88,10.8-4.27s17.82-12.53,33.51-9.46C180.86,223.15,173.53,238,159.1,248.22Zm-37.29-11.28c3.46-4.2-8.85,2.3-9.24,2.5.23-.54,9.92-23,4.22-20.79,0,0-7.57,4.74-10.18,12.52s-8.15,33.38-4.88,31.37S118.3,241.21,121.81,236.94ZM70.86,191c.58-1.26-1-3-2.46-.76C62.88,198.89,50.53,217.86,51,227.4s.25,17.47,1.25,20.53,13.56-27.64,14.15-31.74.67-6.95-1.43-5.53-3.59,4.78-2.93,1.93a73.31,73.31,0,0,1,5.36-13.47A67.15,67.15,0,0,0,70.86,191Z"/></clipPath><clipPath id="clip-path-3"><path class="cls-1" d="M272.28,98a10.24,10.24,0,0,1-5.64,5.42c2.82-3.06,4-11.74,4.06-12.16v0a74.84,74.84,0,0,0-4.06-18.18c-1,4.4-2.27,5.26-2.27,5.26.33-2.92.8-8.52.83-8.85a53.94,53.94,0,0,0-5.84-10.24,46.75,46.75,0,0,0-4.88-5.66A43.09,43.09,0,0,0,249,49c.14,5.27-7.09,16.06-19.29,24.75.88,6.32-.81,8.82-.81,7.25s-1.59-5.61-1.59-5.61c-.7.46-1.41.91-2.14,1.35-.32,5.36.52,11.14.09,13s-3.06-11.32-3.06-11.32c-1.14.63-2.32,1.22-3.53,1.79,0,0,3.08,8.11,3.08,10.89,0,1.52-5.69-9.71-5.69-9.71h0c-.77.33-1.55.65-2.35.95l-.43.17h0s2.65,3.37,2.78,5.77-2.29-1.83-5.56-4.75h0c-19.55,6.92-22.57,5.36-38.87,2.62l-4.6-.64c-3.26,4.71-11,10.08-25.86,11.32a51.64,51.64,0,0,1-5.42.16,44.06,44.06,0,0,0-.27,7.87q.08,1.24.27,2.7c.32.19,8.69,5.17,22,5.41,0,0-10.26,4.21-20.69,1.23.24,1,.51,1.93.82,2.94,6.09,20,25,49.26,72.25,46.28,17.7-1.11,31-5.47,40.88-11.23,22.87-13.29,27.82-34,28.06-39.19C279.27,107.36,274.61,100.88,272.28,98ZM181,148.34a30.52,30.52,0,0,1-12.92-1.76c-6.78-2.51-10.32-3.24-12.17-2.51,0,0,4.48-4.64,7.61-6,0,0,7.35-4,13.42-2.51s10.58,3.67,16.83,1.09c-.54.25-7,3.17-12.89,3.17-6.15,0-8.77,0-12,1.88C169,141.68,175.9,148,181,148.34Zm23-62.08c4.71,1.42,7.37,7.26,7.37,7.26A14.29,14.29,0,0,1,204,86.26Zm31-10.59c.26,4.12-2.43,9.06-2.43,9.06A12.1,12.1,0,0,1,235,75.67Zm-10.16,37.85,6-2.58a1.77,1.77,0,0,1,2.39,2.17l-1.67,5.32a1.78,1.78,0,0,1-2.65,1l-4.34-2.75A1.78,1.78,0,0,1,224.88,113.52Zm8.51,23.11c-2.11,2.67-7.82-4.94-7.82-4.94,5.38-2.74,6-9.39,6-9.39a10.93,10.93,0,0,0,6.24,2.62C237.41,128.61,235.51,133.94,233.39,136.63Zm19.84-62.27h0a21.1,21.1,0,0,1,2.88,1A21.1,21.1,0,0,0,253.23,74.36Z"/></clipPath><pattern id="新增圖樣色票_1" data-name="新增圖樣色票 1" width="44.08" height="44.08" patternTransform="translate(-130.04 91.69) scale(0.67)" patternUnits="userSpaceOnUse" viewBox="0 0 44.08 44.08"><rect class="cls-1" width="44.08" height="44.08"/><rect class="cls-2" width="44.08" height="44.08"/></pattern></defs><g id="圖層_2" data-name="圖層 2"><g id="圖層_2-2" data-name="圖層 2"><path class="cls-3" d="M271.44,204.8c-.14-.2-6.15,3.61-8,4.86s5.21-8.09,5.47-8.43C269.69,202.44,270.55,203.64,271.44,204.8Z"/><path class="cls-3" d="M271,96.47s.52.56,1.3,1.52a10.24,10.24,0,0,1-5.64,5.42c2.82-3.06,4-11.74,4.06-12.16C271,94.48,271,96.47,271,96.47Z"/><path class="cls-4" d="M287.22,221.88c-.8-1.51-9.11-8.39-15.78-17.08-.14-.2-6.15,3.61-8,4.86s5.21-8.09,5.47-8.43a42.42,42.42,0,0,1-4.26-8c-1.42-3.66-3.08-8.34-4.73-13.23-5.61,1.82-9.82,6.21-13,9.09a33.2,33.2,0,0,1-3.38,2.73c-1.9,1.3-3.27,1.77-2.65.14,4.51-10,16.89-18.36,16.89-18.36-1.15-3.52-2.26-7-3.23-10-2.4,1.88-2.12,2.29-7,5a29.44,29.44,0,0,0-8.29,7.37,18.24,18.24,0,0,1,6.11-10.71,19.2,19.2,0,0,0,6.22-11h0c-.42-1.32-.64-2.08-.64-2.08-9.91,5.76-23.18,10.12-40.88,11.23-47.22,3-66.16-26.25-72.25-46.28-.3.25-7.8,6.52-11,7.81s-5.27,2.33,0,9.36,11.46,11.51,11,14.16-.46.4-7.11-3.12-12.93-8.7-14.43-14.26-3.26,2.31-14.31.63-14.72,2.59-14.72,2.59,16.22,8.28,20.75,14.18h0c15.1,3.25,35.28,9.75,49.26,22.45,1.26,1.15,2.48,2.35,3.63,3.6a48.87,48.87,0,0,1,8,11.63,89.14,89.14,0,0,1,6,15.35c6,21.65-1.37,36.51-15.8,46.72.18,0,1.91-.2,4.46-.29,0,0,28.95-7.31,44.59-24.67,0,0-11.72-3.52-15.31-5.4-11-5.76-13.31-13.68-13.31-13.68s-1.25-9.41,3.52-17.44S192,173.56,195.6,171.3s8.56-3.13,7.86-1-10.63,15.1-12,22.73-2.89,14.42-.88,15.67,2.26,2,5.9,2,8.76.63,10.72,4.14,4.67-1.88,7.46-3.77,3.91-2.76,5.91-2.76,1.26,2-1,6.4-7.78,7.41-8.4,10.79c2.36,1.76,5.94,4.37,10.08,7.24,0,0,3.84-8.23,8.11-9.49s3.77-.63,2.32,2.38-5,6.71-6.11,10.07c10.59,7.13,23.08,14.66,28.51,14.53,10.29-.25,15.32-11.54,14.06-15.06C267,232.08,251,224.84,236.36,202a19.91,19.91,0,0,0,3-2.25c5,5.38,10,11.74,14.6,17.47S276,233.8,281.31,232.67,288.34,224,287.22,221.88ZM228.6,182.14c-3.13-.34-4.8-4.79-15.18,0s-11.63,2.16-8.36-1.87c2.69-3.33,9.87-6.36,16.56-4.35s4.9,3.84,10.06,4.35C231.68,180.3,231.73,182.47,228.6,182.14Z"/><path class="cls-3" d="M265.2,69.46c.53,1.2,1,2.4,1.44,3.59-1,4.4-2.27,5.26-2.27,5.26C264.7,75.39,265.17,69.79,265.2,69.46Z"/><path class="cls-3" d="M259.86,31.62a170.94,170.94,0,0,1-.5,27.6,46.75,46.75,0,0,0-4.88-5.66c3.16-17.21-6.68-33.73-6.68-33.73-3.61,5-9.13,15.44-11.57,20.19a38.82,38.82,0,0,0-10-8.37,57.49,57.49,0,0,1,4-6.8C236.26,16.06,249.82,0,249.82,0S259.1,23.6,259.86,31.62Z"/><path class="cls-3" d="M257.76,173.63c.7,2.13,1.42,4.28,2.13,6.4-5.61,1.82-9.82,6.21-13,9.09a33.2,33.2,0,0,1-3.38,2.73c-1.9,1.3-3.27,1.77-2.65.14C245.38,182,257.76,173.63,257.76,173.63Z"/><path class="cls-5" d="M247.8,19.83s9.84,16.52,6.68,33.73A43.09,43.09,0,0,0,249,49a4,4,0,0,0-.07-.7c-.71-4.12-11.35-7-11.74-7.06h0c-.28-.39-.59-.79-.91-1.19C238.67,35.27,244.19,24.78,247.8,19.83Z"/><path class="cls-3" d="M254.53,163.61c-2.4,1.88-2.12,2.29-7,5a29.44,29.44,0,0,0-8.29,7.37,18.24,18.24,0,0,1,6.11-10.71,19.2,19.2,0,0,0,6.22-11C252.22,156.27,253.26,159.62,254.53,163.61Z"/><path class="cls-6" d="M237.8,124.92c-.39,3.69-2.29,9-4.41,11.71s-7.82-4.94-7.82-4.94c5.38-2.74,6-9.39,6-9.39A10.93,10.93,0,0,0,237.8,124.92Z"/><path class="cls-7" d="M235,75.67c.26,4.12-2.43,9.06-2.43,9.06A12.1,12.1,0,0,1,235,75.67Z"/><path class="cls-6" d="M230.91,110.94a1.77,1.77,0,0,1,2.39,2.17l-1.67,5.32a1.78,1.78,0,0,1-2.65,1l-4.34-2.75a1.78,1.78,0,0,1,.24-3.14Z"/><path class="cls-3" d="M229.36,223.26c4.26-1.25,3.77-.63,2.32,2.38s-5,6.71-6.11,10.07c-1.49-1-2.94-2-4.32-3C221.25,232.75,225.09,224.52,229.36,223.26Z"/><path class="cls-3" d="M231.68,180.3s0,2.17-3.08,1.84-4.8-4.79-15.18,0-11.63,2.16-8.36-1.87c2.69-3.33,9.87-6.36,16.56-4.35S226.52,179.79,231.68,180.3Z"/><path class="cls-7" d="M229.67,73.72c.88,6.32-.81,8.82-.81,7.25s-1.59-5.61-1.59-5.61C228.09,74.83,228.89,74.28,229.67,73.72Z"/><path class="cls-7" d="M225.13,76.71c-.32,5.36.52,11.14.09,13s-3.06-11.32-3.06-11.32C223.17,77.86,224.17,77.29,225.13,76.71Z"/><path class="cls-7" d="M221.71,91.09c0,1.52-5.69-9.71-5.69-9.71h0q1.33-.56,2.61-1.17S221.71,88.31,221.71,91.09Z"/><path class="cls-3" d="M220.57,208.32c2,0,1.26,2-1,6.4s-7.78,7.41-8.4,10.79c-1.9-1.4-3-2.25-3-2.25s-11.72-3.52-15.31-5.4c-11-5.76-13.31-13.68-13.31-13.68s-1.25-9.41,3.52-17.44S192,173.56,195.6,171.3s8.56-3.13,7.86-1-10.63,15.1-12,22.73-2.89,14.42-.88,15.67,2.26,2,5.9,2,8.76.63,10.72,4.14,4.67-1.88,7.46-3.77S218.57,208.32,220.57,208.32Z"/><path class="cls-7" d="M216,88.26c.12,2.4-2.29-1.83-5.56-4.75h0c.88-.31,1.82-.65,2.78-1h0S215.89,85.86,216,88.26Z"/><path class="cls-7" d="M204,86.26c4.71,1.42,7.37,7.26,7.37,7.26A14.29,14.29,0,0,1,204,86.26Z"/><path class="cls-4" d="M272.28,98a10.24,10.24,0,0,1-5.64,5.42c2.82-3.06,4-11.74,4.06-12.16v0a74.84,74.84,0,0,0-4.06-18.18c-1,4.4-2.27,5.26-2.27,5.26.33-2.92.8-8.52.83-8.85a53.94,53.94,0,0,0-5.84-10.24,46.75,46.75,0,0,0-4.88-5.66A43.09,43.09,0,0,0,249,49c.14,5.27-7.09,16.06-19.29,24.75.88,6.32-.81,8.82-.81,7.25s-1.59-5.61-1.59-5.61c-.7.46-1.41.91-2.14,1.35-.32,5.36.52,11.14.09,13s-3.06-11.32-3.06-11.32c-1.14.63-2.32,1.22-3.53,1.79,0,0,3.08,8.11,3.08,10.89,0,1.52-5.69-9.71-5.69-9.71h0c-.77.33-1.55.65-2.35.95l-.43.17h0s2.65,3.37,2.78,5.77-2.29-1.83-5.56-4.75h0c-19.55,6.92-23.91,2.83-43.46,2h0c-3.26,4.71-11,10.08-25.86,11.32a51.64,51.64,0,0,1-5.42.16,44.06,44.06,0,0,0-.27,7.87q.08,1.24.27,2.7c.32.19,8.69,5.17,22,5.41,0,0-10.26,4.21-20.69,1.23.24,1,.51,1.93.82,2.94,6.09,20,25,49.26,72.25,46.28,17.7-1.11,31-5.47,40.88-11.23,22.87-13.29,27.82-34,28.06-39.19C279.27,107.36,274.61,100.88,272.28,98ZM181,148.34a30.52,30.52,0,0,1-12.92-1.76c-6.78-2.51-10.32-3.24-12.17-2.51,0,0,4.48-4.64,7.61-6,0,0,7.35-4,13.42-2.51s10.58,3.67,16.83,1.09c-.54.25-7,3.17-12.89,3.17-6.15,0-8.77,0-12,1.88C169,141.68,175.9,148,181,148.34Zm23-62.08c4.71,1.42,7.37,7.26,7.37,7.26A14.29,14.29,0,0,1,204,86.26Zm31-10.59c.26,4.12-2.43,9.06-2.43,9.06A12.1,12.1,0,0,1,235,75.67Zm-10.16,37.85,6-2.58a1.77,1.77,0,0,1,2.39,2.17l-1.67,5.32a1.78,1.78,0,0,1-2.65,1l-4.34-2.75A1.78,1.78,0,0,1,224.88,113.52Zm8.51,23.11c-2.11,2.67-7.82-4.94-7.82-4.94,5.38-2.74,6-9.39,6-9.39a10.93,10.93,0,0,0,6.24,2.62C237.41,128.61,235.51,133.94,233.39,136.63Zm19.84-62.27h0a21.1,21.1,0,0,1,2.88,1A21.1,21.1,0,0,0,253.23,74.36Z"/><path class="cls-7" d="M193.81,136.63c-.54.25-7,3.17-12.89,3.17-6.15,0-8.77,0-12,1.88,0,0,7,6.28,12.09,6.66a30.52,30.52,0,0,1-12.92-1.76c-6.78-2.51-10.32-3.24-12.17-2.51,0,0,4.48-4.64,7.61-6,0,0,7.35-4,13.42-2.51S187.56,139.21,193.81,136.63Z"/><path class="cls-4" d="M159.1,248.22c.18,0,1.91-.2,4.46-.29,7-.26,20.34.11,24.59,6.16,5.86,8.37-4.18,17.73-7.53,18.07s-35.6-4-51.53.67C125.22,274,94,289.9,63.16,267.48a98.18,98.18,0,0,1-13.69-12.05c.37-8.87-10.4-21.42-11.89-26.28s1.65-11.2.48-14.22S38,208.57,40,204.31,57.56,179,65.08,172.68s10-7.78,2.26-6.27-21.58,14.8-24.84,18.35-2.76-1.79-1.76-7.06S46,157.87,51,151.35s5.52-9,15.56-11c9.87-2,32.28,6.29,33,6.56-2.22-.36-4.21-.65-5.91-.86,0,0-13.62.67-25.31,13.38-4.57,4,5,.25,11-2.26s10.31-3.26,14.32-2.26,12,3,7.77,4-17.82,11.57-22.59,15.7S76.2,179.71,85,177.2s20-10.38,24.56-13,5.52-1.17,7.66-.62,8.15-.57,10.54-1.33,7.28-2.37,9.16,0,17,5.62,20.4,8.64c1.26,1.15,2.48,2.35,3.63,3.6,0,0-32.44-1.71-46.37,1.55s-27.1,10.79-32.88,27.23S78,231,80.39,227.65s2.89-18.32,13.44-29.11,21.7-14.31,19.7-11.8-9.41,18.95-10.54,23.72,6.27-3.54,12.17-9.3,11.51-13.67,22.69-17.31,26.63,2.63,24.87,3.64-31.12,18.45-32.13,27.74c-.75,2.51,5.4-.88,10.8-4.27s17.82-12.53,33.51-9.46C180.86,223.15,173.53,238,159.1,248.22Zm-37.29-11.28c3.46-4.2-8.85,2.3-9.24,2.5.23-.54,9.92-23,4.22-20.79,0,0-7.57,4.74-10.18,12.52s-8.15,33.38-4.88,31.37S118.3,241.21,121.81,236.94ZM70.86,191c.58-1.26-1-3-2.46-.76C62.88,198.89,50.53,217.86,51,227.4s.25,17.47,1.25,20.53,13.56-27.64,14.15-31.74.67-6.95-1.43-5.53-3.59,4.78-2.93,1.93a73.31,73.31,0,0,1,5.36-13.47A67.15,67.15,0,0,0,70.86,191Z"/><path class="cls-3" d="M169,186.15a89.14,89.14,0,0,1,6,15.35c-15.69-3.07-28.11,6.07-33.51,9.46s-11.55,6.78-10.8,4.27c1-9.29,30.38-26.73,32.13-27.74s-13.68-7.28-24.87-3.64-16.79,11.54-22.69,17.31-13.3,14.07-12.17,9.3,8.53-21.21,10.54-23.72-9.16,1-19.7,11.8-11,25.72-13.44,29.11-4.51-7.91,1.26-24.35,18.95-24,32.88-27.23,46.37-1.55,46.37-1.55A48.87,48.87,0,0,1,169,186.15Z"/><path class="cls-3" d="M99.62,146.87c2.53.42,5.36.93,8.39,1.59h0c15.1,3.25,35.28,9.75,49.26,22.45-3.43-3-18.55-6.3-20.4-8.64s-6.77-.76-9.16,0-8.41,1.87-10.54,1.33-3.14-2-7.66.62S93.7,174.69,85,177.2s-10.83,1.5-6.06-2.62,18.32-14.7,22.59-15.7-3.76-3-7.77-4-8.3-.25-14.32,2.26-15.56,6.27-11,2.26C80.09,146.67,93.71,146,93.71,146c1.7.21,3.69.5,5.91.86Z"/><path class="cls-3" d="M157.7,112.94s-10.26,4.21-20.69,1.23a53.5,53.5,0,0,1-1.3-6.64C136,107.72,144.4,112.7,157.7,112.94Z"/><path class="cls-3" d="M26.59,207.13a90.75,90.75,0,0,1,4.78-39.93q1.33-3.87,3-7.82C54.12,113.2,108,118.21,108,118.21a179.87,179.87,0,0,1,27.43-13.38q.08,1.24.27,2.7a53.5,53.5,0,0,0,1.3,6.64c.24,1,.51,1.93.82,2.94-.3.25-7.8,6.52-11,7.81s-5.27,2.33,0,9.36,11.46,11.51,11,14.16-.46.4-7.11-3.12-12.93-8.7-14.43-14.26-3.26,2.31-14.31.63-14.72,2.59-14.72,2.59,16.22,8.28,20.75,14.18c-3-.66-5.86-1.17-8.39-1.59h0c-.75-.27-23.16-8.53-33-6.56-10,2-10.54,4.53-15.56,11s-9.29,21.08-10.29,26.35-1.51,10.6,1.76,7.06,17.06-16.84,24.84-18.35,5.27,0-2.26,6.27S42,200,40,204.31s-3.09,7.61-1.92,10.62-2,9.37-.48,14.22,12.26,17.41,11.89,26.28C37.21,242.39,28.73,225.93,26.59,207.13Z"/><path class="cls-3" d="M149.17,82.58a20.29,20.29,0,0,1-7.66-5A20.08,20.08,0,0,1,136,67.61c-7.88,1.61-16.49,4.23-21.33,8.44A143.06,143.06,0,0,1,99.64,87.43s17.74,9.14,36.07,9.53a51.64,51.64,0,0,0,5.42-.16C156,95.56,163.73,90.19,167,85.48A54.48,54.48,0,0,1,149.17,82.58Z"/><path class="cls-3" d="M112.57,239.44c.39-.2,12.7-6.7,9.24-2.5s-16.82,23.59-20.08,25.6S104,239,106.61,231.17s10.18-12.52,10.18-12.52C122.49,216.45,112.8,238.9,112.57,239.44Z"/><path class="cls-3" d="M90.19,9.79C109,10.46,112,30.14,97.3,36.7S60.82,48.61,42.75,75.05A102,102,0,0,0,30.34,101c-9.64-2.69-16.46,5.69-22,7.48-5.1,1.65-4.46-2.85-4.34-3.54v0c.34-1.29.69-2.6,1.08-3.92a168.21,168.21,0,0,1,12-30.36c-.66,5.9,14.25-1.1,19.77-5s15.39-5.27,15.39-5.27c-6.85-2.67-13.21,0-20.58,0s-5.64-4.81-5.64-4.81C48,23,76.54,9.3,90.19,9.79Z"/><path class="cls-3" d="M68.4,190.25c1.47-2.29,3-.5,2.46.76a67.15,67.15,0,0,1-3.43,8.11,73.31,73.31,0,0,0-5.36,13.47c-.66,2.85.84-.5,2.93-1.93s2,1.43,1.43,5.53S53.29,251,52.28,247.93s-.75-11-1.25-20.53S62.88,198.89,68.4,190.25Z"/><path class="cls-8" d="M52.28,60.32s-9.87,1.34-15.39,5.27-20.43,10.93-19.77,5a147.92,147.92,0,0,1,8.94-15.11s-1.72,4.81,5.64,4.81S45.43,57.65,52.28,60.32Z"/><path class="cls-3" d="M31.37,167.2h0a90.75,90.75,0,0,0-4.78,39.93c-.41-.41-12.73-13-20.46-35.12h0c6.55,7.1,11.76-2.09,11-8.4s7.33-9.5,7.33-9.5l1.76-.4A45.13,45.13,0,0,0,31.37,167.2Z"/><path class="cls-8" d="M8.36,108.46c5.52-1.79,12.34-10.17,22-7.48,0,0-6.92,1.67-9.18,6.2S4.69,127.9,1.51,116.91q.92-5.84,2.51-12C3.9,105.61,3.26,110.11,8.36,108.46Z"/><path class="cls-3" d="M21.16,107.18c2.26-4.53,9.18-6.2,9.18-6.2-5.79,17.85-7.57,37.49-4.15,52.73l-1.76.4c-5.78-1.76-11.8,7.28-15.57,8.28s-6.55-4.21-6.55-4.21h0a113.43,113.43,0,0,1-.79-41.27C4.69,127.9,18.9,111.69,21.16,107.18Z"/><path class="cls-8" d="M8.86,162.39c3.77-1,9.79-10,15.57-8.28,0,0-8.13,3.18-7.33,9.5s-4.41,15.5-11,8.4h0A111.13,111.13,0,0,1,2.3,158.18h0S5.1,163.39,8.86,162.39Z"/><g class="cls-9"><path class="cls-10" d="M211.36,163.6s9.17,7.3,12.39,15A138.08,138.08,0,0,0,236.36,202a14.7,14.7,0,0,0,3-2.25s11.4-28.71,7.54-46.53C246.9,153.23,225.14,147.39,211.36,163.6Z"/><path class="cls-10" d="M186.57,210.58S165,228.9,157.27,233.42s-12,18.57-12,18.57,38.9-4.38,46.68-11.41,15.71-10.18,19.21-19.84C211.17,220.74,194.47,218.73,186.57,210.58Z"/></g><g class="cls-11"><path class="cls-10" d="M175.44,197.23s1.4,40.34-22.19,52.13c0,0,12.74-2.1,26.7-2.94C180,246.42,182.24,209.78,175.44,197.23Z"/></g><path class="cls-12" d="M249.6,43.78a22.79,22.79,0,0,0-1.71-2.46h0c-.3-.39-.66-.76-1-1.18-9.49-12.49-41-18.63-52.82-17A75.65,75.65,0,0,0,148.69,43.1C136.87,54.24,133,62.23,134.81,69.56a20.6,20.6,0,0,0,6,10c2.58,2.42,12.67,16.88,50.4,9.3,33.93-6.81,50.64-22.41,58.92-33.27C252.6,52.33,252.18,48.06,249.6,43.78Z"/><path class="cls-13" d="M188.44,23.26a9.4,9.4,0,0,0-18.34,2.9,9.28,9.28,0,0,0,.49,3,9.4,9.4,0,0,0,17.85-5.89Z"/><g class="cls-14"><path class="cls-10" d="M156,154.25s22.34-18.11,42.16-22.56a68.59,68.59,0,0,0,31.6-16.45s26.45.89,36.93-4.45,24.59-3.26,24.59-3.26-.11,37.69-36.7,57.57S165.36,173,156,154.25Z"/></g><ellipse class="cls-10" cx="189.73" cy="111.38" rx="23.19" ry="20.35" transform="translate(-21.91 51.3) rotate(-14.57)"/><ellipse class="cls-2" cx="192.68" cy="113.43" rx="16.58" ry="17.46" transform="translate(-19.72 43.58) rotate(-12.28)"/><ellipse class="cls-10" cx="194.56" cy="113.49" rx="5.51" ry="5.81" transform="translate(-19.69 43.98) rotate(-12.28)"/><ellipse class="cls-10" cx="248.91" cy="92.25" rx="19.34" ry="18.15" transform="translate(6.62 200.71) rotate(-44.45)"/><ellipse class="cls-2" cx="250.1" cy="95.22" rx="13.49" ry="15.42" transform="translate(-3.79 10.62) rotate(-2.41)"/><ellipse class="cls-10" cx="252.4" cy="95.39" rx="4.75" ry="5.44" transform="matrix(1, -0.04, 0.04, 1, -3.79, 10.71)"/><path class="cls-15" d="M214.66,129.32a9.88,9.88,0,0,0,5,2.67,8.33,8.33,0,0,0,2.73,0,9,9,0,0,0,2.56-.92,9.56,9.56,0,0,0,3.84-3.7,14.58,14.58,0,0,0,1.78-5.14l.27-1.82,1.37,1.18A11.26,11.26,0,0,0,236,123.7a7.55,7.55,0,0,0,2.11.38,7.66,7.66,0,0,0,1.07,0,7.9,7.9,0,0,0,1.06-.2,5.89,5.89,0,0,0,3.53-2.32,6.17,6.17,0,0,0,.69-4.44,6,6,0,0,1,.1,4.86,6.66,6.66,0,0,1-3.89,3.3,8.49,8.49,0,0,1-5.18.16,11.7,11.7,0,0,1-4.58-2.41l1.65-.64a14.74,14.74,0,0,1-2.09,6,10.43,10.43,0,0,1-7.87,5,9.07,9.07,0,0,1-3.16-.35A8.87,8.87,0,0,1,214.66,129.32Z"/></g></g></svg>