<svg xmlns="http://www.w3.org/2000/svg" viewBox="0 0 1006.24 67.88"><defs><style>.cls-1{fill:#cf8218;}.cls-2{fill:none;stroke:#cf8218;stroke-linecap:round;stroke-miterlimit:10;stroke-width:6px;}</style></defs><g id="圖層_2" data-name="圖層 2"><g id="圖層_1-2" data-name="圖層 1"><path class="cls-1" d="M488.9,36.08a2.1,2.1,0,0,1-1.51-.63L482.91,31a8.6,8.6,0,0,1-2-9.24,8.3,8.3,0,0,1,7.36-5.43,9.93,9.93,0,0,1,10.47,9.87,2.13,2.13,0,0,1-.63,1.51l-7.75,7.76A2.14,2.14,0,0,1,488.9,36.08Zm0-15.52h-.34A4.06,4.06,0,0,0,485,23.26a4.39,4.39,0,0,0,1,4.7l3,3,5.56-5.56A5.63,5.63,0,0,0,488.9,20.56Zm7.75,5.62h0Z"/><path class="cls-1" d="M504.41,20.56a2.17,2.17,0,0,1-1.51-.62l-4.7-4.7a8.91,8.91,0,0,1-2-9.58A8.63,8.63,0,0,1,503.81,0,9.45,9.45,0,0,1,505,0a8.64,8.64,0,0,1,7.65,5.64,8.91,8.91,0,0,1-2,9.58l-4.7,4.7A2.13,2.13,0,0,1,504.41,20.56Zm0-16.29h-.36a4.36,4.36,0,0,0-3.88,2.9,4.69,4.69,0,0,0,1.05,5l3.19,3.19,3.19-3.19a4.67,4.67,0,0,0,1-5,4.36,4.36,0,0,0-3.88-2.9Z"/><path class="cls-1" d="M504.41,67.88c-.21,0-.41,0-.62,0a8.63,8.63,0,0,1-7.61-5.63,8.92,8.92,0,0,1,2-9.59h0L502.9,48a2.12,2.12,0,0,1,3,0l4.7,4.69a8.9,8.9,0,0,1,2,9.59A8.62,8.62,0,0,1,505,67.86,5.72,5.72,0,0,1,504.41,67.88Zm-3.19-12.22a4.71,4.71,0,0,0-1.05,5.05,4.34,4.34,0,0,0,3.89,2.89,4,4,0,0,0,.69,0,4.34,4.34,0,0,0,3.9-2.89,4.69,4.69,0,0,0-1-5.05l-3.19-3.18Z"/><path class="cls-1" d="M529.42,42.78a8.86,8.86,0,0,1-6.31-2.63l-4.69-4.7a2.12,2.12,0,0,1,0-3l4.69-4.69a8.92,8.92,0,0,1,9.59-2,8.62,8.62,0,0,1,5.63,7.63,5.82,5.82,0,0,1,0,.6c0,.21,0,.41,0,.62a8.63,8.63,0,0,1-5.63,7.62A9.45,9.45,0,0,1,529.42,42.78ZM523,33.94l3.18,3.19a4.71,4.71,0,0,0,5,1,4.34,4.34,0,0,0,2.89-3.88c0-.13,0-.25,0-.36s0-.23,0-.34a4.34,4.34,0,0,0-2.89-3.9,4.71,4.71,0,0,0-5,1.05Z"/><path class="cls-1" d="M479.4,42.78a9.35,9.35,0,0,1-3.27-.6,8.64,8.64,0,0,1-5.64-7.64c0-.19,0-.39,0-.6s0-.41,0-.62a8.61,8.61,0,0,1,5.64-7.61,8.88,8.88,0,0,1,9.58,2l4.7,4.69a2.14,2.14,0,0,1,0,3l-4.7,4.7A8.86,8.86,0,0,1,479.4,42.78Zm0-13.4a4.91,4.91,0,0,0-1.75.32,4.37,4.37,0,0,0-2.89,3.89c0,.12,0,.24,0,.35s0,.23,0,.34a4.37,4.37,0,0,0,2.89,3.9,4.7,4.7,0,0,0,5.05-1l3.19-3.19-3.19-3.19A4.61,4.61,0,0,0,479.39,29.38Z"/><path class="cls-1" d="M488.9,51.59a5.52,5.52,0,0,1-.58,0A8.3,8.3,0,0,1,481,46.14a8.58,8.58,0,0,1,2-9.23l4.48-4.48a2.14,2.14,0,0,1,3,0l7.75,7.76a2.13,2.13,0,0,1,.63,1.51A9.91,9.91,0,0,1,488.9,51.59Zm0-14.63-3,3a4.37,4.37,0,0,0-1,4.69,4,4,0,0,0,3.61,2.69h.34a5.63,5.63,0,0,0,5.56-4.8Z"/><path class="cls-1" d="M519.93,36.08a2.1,2.1,0,0,1-1.51-.63l-7.76-7.76a2.13,2.13,0,0,1-.63-1.51,9.91,9.91,0,0,1,9.9-9.89l.57,0a8.3,8.3,0,0,1,7.36,5.43,8.6,8.6,0,0,1-2,9.24l-4.47,4.47A2.14,2.14,0,0,1,519.93,36.08Zm-5.56-10.72,5.56,5.56,3-3a4.37,4.37,0,0,0,1-4.7,4,4,0,0,0-3.61-2.69h-.33A5.63,5.63,0,0,0,514.37,25.36Z"/><path class="cls-1" d="M519.93,51.59A9.91,9.91,0,0,1,510,41.7a2.13,2.13,0,0,1,.63-1.51l7.76-7.76a2.14,2.14,0,0,1,3,0l4.47,4.48a8.58,8.58,0,0,1,2,9.23,8.3,8.3,0,0,1-7.36,5.43A5.43,5.43,0,0,1,519.93,51.59Zm-5.56-9.07a5.63,5.63,0,0,0,5.56,4.8h.33a4,4,0,0,0,3.61-2.69,4.35,4.35,0,0,0-1-4.69l-3-3Z"/><path class="cls-1" d="M504.41,36.08a2.15,2.15,0,0,1-1.51-.63l-7.76-7.76a2.14,2.14,0,0,1,0-3l7.76-7.75a2.11,2.11,0,0,1,1.51-.63h0a2.09,2.09,0,0,1,1.51.63l7.76,7.75a2.14,2.14,0,0,1,0,3l-7.76,7.76A2.13,2.13,0,0,1,504.41,36.08Zm-4.74-9.9,4.74,4.74,4.74-4.74-4.74-4.73Z"/><path class="cls-1" d="M496.65,43.83a2.17,2.17,0,0,1-1.51-.62l-7.75-7.76a2.12,2.12,0,0,1,0-3l7.75-7.76a2.14,2.14,0,0,1,3,0l7.76,7.76a2.12,2.12,0,0,1,0,3l-7.76,7.76A2.13,2.13,0,0,1,496.65,43.83Zm-4.73-9.89,4.73,4.74,4.74-4.74-4.74-4.74Z"/><path class="cls-1" d="M512.17,43.83a2.15,2.15,0,0,1-1.51-.62l-7.76-7.76a2.14,2.14,0,0,1,0-3l7.76-7.76a2.2,2.2,0,0,1,3,0l7.76,7.76a2.15,2.15,0,0,1,0,3l-7.76,7.76A2.15,2.15,0,0,1,512.17,43.83Zm-4.74-9.89,4.74,4.74,4.74-4.74-4.74-4.74Z"/><path class="cls-1" d="M504.41,51.59A2.14,2.14,0,0,1,502.9,51l-7.76-7.76a2.15,2.15,0,0,1,0-3l7.76-7.76a2.14,2.14,0,0,1,3,0l7.76,7.76a2.14,2.14,0,0,1,0,3L505.92,51A2.13,2.13,0,0,1,504.41,51.59Zm-4.74-9.89,4.74,4.74,4.74-4.74L504.41,37Z"/></g><g id="圖層_2-2" data-name="圖層 2"><line class="cls-2" x1="3" y1="36.06" x2="472" y2="36.06"/><line class="cls-2" x1="536.24" y1="36.06" x2="1003.24" y2="36.06"/></g></g></svg>